<svg xmlns="http://www.w3.org/2000/svg" viewBox="0 0 120 120" aria-hidden="true" role="img">
  <defs>
    <linearGradient id="logoGradient" x1="0%" y1="10%" x2="100%" y2="90%">
      <stop offset="0%" stop-color="#7afaff" />
      <stop offset="100%" stop-color="#8d64ff" />
    </linearGradient>
    <filter id="glow" x="-50%" y="-50%" width="200%" height="200%">
      <feGaussianBlur stdDeviation="3.5" result="coloredBlur" />
      <feMerge>
        <feMergeNode in="coloredBlur" />
        <feMergeNode in="SourceGraphic" />
      </feMerge>
    </filter>
  </defs>
  <g filter="url(#glow)">
    <path d="M42 18c-4 2-9 7-11 13-3 6-2 15 1 21 2 4 4 7 3 11-1 4-5 7-7 10-3 5-3 11 2 14 4 3 10 0 14-3 4-2 8-6 11-10 4-6 8-12 14-15 4-2 9-2 13 0 5 3 8 6 10 11 3 7 7 14 14 16 5 1 11-1 14-5 3-4 4-9 3-14-1-4-4-7-7-10-3-3-7-4-8-8-1-4 0-8 1-12 2-5 5-10 8-14 3-4 7-8 6-13 0-5-5-9-10-10-6-1-12 2-16 6-5 4-8 10-12 16-6 9-16 16-26 19-7 2-14 2-20-1-5-2-10-7-12-13-1-4-1-8 1-12 2-4 5-7 9-9z" fill="url(#logoGradient)"/>
    <polygon class="lightning" points="66,20 58,48 74,48 54,80 62,52 46,52" fill="#fff" opacity="0.9" />
    <path d="M36 42c4-5 11-8 16-7s10 6 11 11c1 5-1 10-5 14" fill="none" stroke="#b3e7ff" stroke-width="3" stroke-linecap="round" />
    <path d="M50 72c5-2 11-5 15-9" fill="none" stroke="#b3e7ff" stroke-width="3" stroke-linecap="round" />
  </g>
</svg>
